#!OML:ASF Y:\EmotionMaleHayes\Project 1\Capture day 1\Session 1\Male1.ASF
:FULLY-SPECIFIED
:DEGREES
49
root -30.4875 17.0976 14.3021 -84.7683 64.3978 -99.4126
lowerback 25.0341 8.6615 5.86111
upperback 9.93942 13.3222 -3.5854
thorax -0.286256 7.34477 -10.2329
lowerneck -20.0075 -3.10514 1.3323
upperneck 11.7269 -5.53973 6.20346
head 7.01298 -1.98846 1.16855
rclavicle -8.26944e-014 -6.52014e-014
rhumerus 23.1653 44.7932 -80.0411
rradius 54.4122
rwrist -3.94006
rhand -14.5527 -22.1556
rfingers 7.12502
rthumb 11.5962 -51.8147
lclavicle -8.26944e-014 -6.52014e-014
lhumerus -45.0668 11.0995 27.4511
lradius 30.3254
lwrist 20.7875
lhand -39.6725 -18.9694
lfingers 7.12502
lthumb -12.6521 10.6274
rfemur -5.67505 -9.24733 28.4215
rtibia 47.9639
rfoot -12.6619 2.8762
rtoes -8.91972
lfemur -38.3869 15.0324 -14.2326
ltibia 39.2791
lfoot 345.545 9.85872
ltoes 15.9016
50
root -30.3697 16.9666 14.3593 -87.3165 64.0188 -101.961
lowerback 25.0377 8.28902 6.35043
upperback 10.0273 12.9815 -3.07998
thorax -0.289262 7.17727 -9.87595
lowerneck -19.8268 -3.04019 1.42459
upperneck 11.8882 -5.43765 5.91921
head 7.02053 -1.96226 1.07457
rclavicle -5.24792e-014 -2.70347e-014
rhumerus 19.3949 46.201 -81.2242
rradius 58.1674
rwrist -5.47418
rhand -14.4782 -22.8351
rfingers 7.12502
rthumb 11.668 -52.4902
lclavicle -5.24792e-014 -2.70347e-014
lhumerus -48.0552 9.85489 26.4523
lradius 29.6453
lwrist 21.5274
lhand -39.9723 -19.4332
lfingers 7.12502
lthumb -12.9411 10.1455
rfemur -5.26727 -8.00556 26.935
rtibia 49.9592
rfoot -12.7474 2.86992
rtoes -13.5958
lfemur -37.1243 15.8047 -14.5166
ltibia 38.2365
lfoot 343.183 9.87792
ltoes 14.8185
51
root -30.2536 16.8192 14.4166 -89.7942 63.6733 -104.578
lowerback 24.9628 7.76388 6.83646
upperback 10.1124 12.4357 -2.68998
thorax -0.268981 6.91506 -9.5949
lowerneck -19.5463 -3.00254 1.15959
upperneck 11.9047 -5.32129 5.99916
head 6.98559 -1.91735 1.15938
rclavicle -4.92986e-014 1.59028e-015
rhumerus 12.6416 46.923 -86.4842
rradius 61.7368
rwrist -4.20933
rhand -14.9084 -22.8572
rfingers 7.12502
rthumb 11.2531 -52.5353
lclavicle -4.92986e-014 1.59028e-015
lhumerus -51.1856 8.79585 25.5146
lradius 29.062
lwrist 22.6486
lhand -39.9077 -19.7721
lfingers 7.12502
lthumb -12.8788 9.81049
rfemur -4.92893 -6.78191 25.4049
rtibia 51.8362
rfoot -12.8345 2.84129
rtoes -17.8577
lfemur -36.1168 15.597 -14.466
ltibia 37.5072
lfoot 340.663 9.96283
ltoes 17.5279
52
root -30.1497 16.6683 14.4753 -92.6253 63.4945 -107.471
lowerback 25.2257 7.20579 7.23297
upperback 10.2005 11.849 -2.38253
thorax -0.41189 6.62772 -9.41158
lowerneck -19.3341 -2.989 1.00243
upperneck 11.8202 -5.23986 5.92996
head 6.92165 -1.9007 1.17381
rclavicle 5.40694e-014 5.32743e-014
rhumerus 6.78908 47.3584 -90.5957
rradius 65.3303
rwrist -3.55044
rhand -15.326 -23.0266
rfingers 7.12502
rthumb 10.8503 -52.7263
lclavicle 5.40694e-014 5.32743e-014
lhumerus -54.0674 7.40353 25.2907
lradius 28.6845
lwrist 23.7041
lhand -40.6794 -18.6957
lfingers 7.12502
lthumb -13.6226 10.8386
rfemur -4.4281 -5.63633 23.6783
rtibia 53.1802
rfoot -12.4762 1.54448
rtoes -20.5769
lfemur -35.3576 14.5724 -14.4344
ltibia 37.0273
lfoot 339.096 9.14101
ltoes 14.8813
53
root -30.0667 16.5073 14.5343 -95.0858 63.3597 -110.216
lowerback 25.2993 6.65174 7.31427
upperback 10.2574 11.1785 -1.90101
thorax -0.622952 6.26811 -8.82292
lowerneck -18.8129 -2.91588 0.351169
upperneck 11.4308 -4.91477 5.77648
head 6.7084 -1.81509 1.27159
rclavicle 4.6118e-014 -6.75868e-014
rhumerus 1.62471 48.4507 -92.7017
rradius 69.4485
rwrist -3.41849
rhand -15.3928 -23.1332
rfingers 7.12502
rthumb 10.7858 -52.8363
lclavicle 4.6118e-014 -6.75868e-014
lhumerus -57.4788 6.42825 25.3961
lradius 28.3835
lwrist 25.2762
lhand -42.0233 -16.3598
lfingers 7.12502
lthumb -14.9176 13.083
rfemur -4.39985 -4.11289 21.9812
rtibia 54.7092
rfoot -12.3809 -0.0755778
rtoes -22.6349
lfemur -35.4509 13.1114 -14.5419
ltibia 37.1526
lfoot 337.303 9.04402
ltoes 15.0674
54
root -29.9993 16.3454 14.5995 -97.6095 63.3657 -113.198
lowerback 25.3868 6.21931 7.32607
upperback 10.3469 10.6517 -1.64337
thorax -0.726435 5.99916 -8.45863
lowerneck -18.7152 -2.87691 0.139916
upperneck 10.9929 -4.76927 5.70174
head 6.54807 -1.77634 1.2997
rclavicle 2.46493e-014 -2.46493e-014
rhumerus -4.94524 48.0259 -97.3313
rradius 72.8686
rwrist -0.431709
rhand -18.0352 -22.6852
rfingers 7.12502
rthumb 8.23637 -52.5047
lclavicle 2.46493e-014 -2.46493e-014
lhumerus -60.1173 5.41906 25.8164
lradius 28.3439
lwrist 27.2062
lhand -42.1056 -15.8433
lfingers 7.12502
lthumb -14.9969 13.5936
rfemur -4.71731 -2.48696 20.1775
rtibia 56.0831
rfoot -12.0883 -2.07705
rtoes -27.6462
lfemur -36.1904 11.3763 -15.0058
ltibia 37.887
lfoot 335.007 9.55416
ltoes 17.2187
55
root -29.9396 16.1962 14.6706 -100.25 63.9426 -116.37
lowerback 25.4693 6.02793 6.55318
upperback 10.5343 10.2552 -1.50738
thorax -0.809001 5.77912 -7.81226
lowerneck -18.7904 -2.87578 0.20002
upperneck 10.4709 -4.7209 5.48509
head 6.3822 -1.78267 1.22649
rclavicle -3.26007e-014 7.31528e-014
rhumerus -9.44583 47.3437 -99.4935
rradius 76.4748
rwrist 0.311886
rhand -17.7246 -21.716
rfingers 7.12502
rthumb 8.53607 -51.5234
lclavicle -3.26007e-014 7.31528e-014
lhumerus -62.4523 4.60598 26.5675
lradius 28.5373
lwrist 28.6934
lhand -42.1184 -14.5304
lfingers 7.12502
lthumb -15.0092 14.9056
rfemur -5.42392 -0.793752 17.6827
rtibia 57.7341
rfoot -11.7507 -4.31647
rtoes -28.1606
lfemur -37.1626 9.6592 -16.3152
ltibia 38.8848
lfoot 333.397 9.94994
ltoes 20.4569
56
root -29.9028 16.0938 14.7917 -104.408 64.9084 -121.207
lowerback 26.0077 5.89978 4.73082
upperback 10.7556 9.72337 -1.38696
thorax -1.25658 5.44284 -6.64527
lowerneck -19.1298 -2.98908 0.3384
upperneck 9.88137 -4.83448 5.17264
head 6.23736 -1.86879 1.09053
rclavicle 4.77083e-014 -2.22639e-014
rhumerus -13.4071 46.5973 -101.192
rradius 79.8324
rwrist 1.77236
rhand -19.4661 -21.1914
rfingers 7.12502
rthumb 6.85519 -51.0604
lclavicle 4.77083e-014 -2.22639e-014
lhumerus -64.5233 3.94754 27.9106
lradius 28.9716
lwrist 31.2
lhand -42.2399 -13.5942
lfingers 7.12502
lthumb -15.1262 15.8331
rfemur -6.35699 1.14804 14.9077
rtibia 59.4816
rfoot -11.1441 -6.36745
rtoes -29.1825
lfemur -38.5439 7.6287 -18.2657
ltibia 40.459
lfoot 332.357 10.3746
ltoes 21.0172
57
root -29.7961 16.0138 14.8701 -106.442 66.798 -122.909
lowerback 26.8771 6.44089 2.10123
upperback 11.3444 9.88541 -1.46164
thorax -1.41147 5.47015 -5.40576
lowerneck -19.7127 -3.14185 0.446035
upperneck 9.30821 -4.99679 4.85389
head 6.13755 -1.97449 0.95031
rclavicle -2.38542e-015 1.94809e-014
rhumerus -16.9244 45.7894 -102.411
rradius 83.1485
rwrist 3.33783
rhand -20.5613 -20.983
rfingers 7.12502
rthumb 5.79791 -50.8837
lclavicle -2.38542e-015 1.94809e-014
lhumerus -66.24 3.80105 29.1191
lradius 29.0661
lwrist 33.235
lhand -42.7435 -13.7553
lfingers 7.12502
lthumb -15.6113 15.6347
rfemur -6.46297 4.59988 11.4102
rtibia 60.8683
rfoot -10.6883 -6.98013
rtoes -29.5912
lfemur -37.9961 6.94566 -20.4254
ltibia 41.0952
lfoot 331.634 10.9451
ltoes 20.6672
